Patient4_TMGait_0pt2_02_left_17_EMG.mot
version=1
nRows=36
nColumns=33
inDegrees=no
endheader
time	1LAddLong	2LGlutMax	3LGlutMed	4LIliopsoas	5LSemiMemb	6LBicFemLong	7LRecFem	8LVastMed	9LVastLat	10LGasMed	11LTibAnt	12lTibPost	13LPeroneusLong	14LSol	15LExtDigLong	16LFlexDigLong	17RAddLong	18RGlutMax	19RGlutMed	20RIliopsoas	21RSemiMemb	22RBicFemLong	23RRecFem	24RVastMed	25RVastLat	26RGasMed	27RTibAnt	28RTibPost	29RPeroneusLong	30RSol	31RExtDigLong	32RFlexDigLong
39.55	0.006256	0.1561	0.061493	-0.00473	-0.02243	-0.063171	0.036774	0.005798	0.020752	0.53223	0.003662	0.02121	-0.049744	-0.33112	-0.023804	-0.066376	0.025635	-0.024719	-0.13473	-0.07431	0.029297	0.095978	0.021667	-0.037384	0.01709	-0.005493	0.004425	0.015869	0.00351	0.1297	-0.005341	-0.018005
39.551	-0.008087	0.13138	0.097198	0.019531	-0.036316	-0.041656	0.020447	0.002289	0.029602	0.31113	-0.001373	0.048828	-0.06424	-0.24353	-0.01236	0.011292	0.010223	-0.10025	0.058899	-0.083008	-0.011444	0.087433	-0.008392	-0.040741	0.027466	0.002747	0.006561	0.010529	-0.036163	-0.14923	-0.003052	-0.010681
39.552	-0.001984	0.14954	0.11063	0.018616	-0.027161	-0.032043	0.039978	0.007629	0.044403	0.003662	-0.005951	0.020752	-0.062561	0.38757	0.001678	0.019226	-0.001831	-0.11917	0.12405	-0.019684	-0.10117	0.079651	-0.019836	-0.064392	0.020447	0.001678	0.008545	0.000763	-0.056305	-0.20523	-0.002899	-0.011902
39.553	0.023346	0.18829	0.19119	-0.000305	-0.006104	-0.071564	0.039368	-0.010834	0.053711	-0.094299	-0.006104	0.018463	-0.058136	0.32516	-0.010681	0.003357	0.015259	-0.068512	-0.14023	0.014038	-0.10696	0.058594	0.012207	-0.12009	0.012054	0.003204	-0.006409	-0.003204	-0.16159	-0.15488	-0.002441	-0.010681
39.554	0.000153	0.13077	0.1207	0.000305	-0.035095	-0.040894	0.067596	-0.006561	-0.082855	-0.028534	-0.0177	0.027924	0.025024	0.16464	-0.007935	0.019684	0.028534	-0.12589	-0.17502	-0.014343	-0.103	0.097351	0.001984	-0.042725	0.023651	0.000763	0.010529	-0.004272	-0.13992	-0.11643	-0.001984	-0.013733
39.555	-0.037537	0.14343	0.103	0.004883	-0.06897	0.013428	0.053406	0.002289	-0.083618	0.00885	-0.005341	0.019836	0.14297	0.060425	-0.021362	0.015411	0.015869	-0.083313	-0.1413	-0.007935	0.058136	0.1033	0.024109	-0.065918	0.038605	0.00351	0.005188	-0.018768	-0.043793	-0.037537	-0.003662	-0.005798
39.556	0.009155	0.10834	0.072479	0.007172	-0.022583	0.082092	0.048981	0.010986	-0.046844	0.022125	-0.009766	0.022736	0.29755	0.10223	-0.024414	-0.002136	0.002136	-0.13123	-0.11871	-0.000153	0.30014	0.096741	0.000916	-0.036774	-0.004883	0.006714	0.00061	-0.00473	0.048981	0.001678	-0.002136	-0.017242
39.557	0.022125	0.020905	-0.055695	0.003815	-0.0354	0.18799	0.022125	0.014648	-0.012817	0.032196	0.005646	0.026093	0.23529	-0.02655	-0.025787	0.007324	0.007782	-0.10574	-0.16602	0.015106	-0.1207	0.16052	-0.073395	-0.059357	-0.043335	0.005188	-0.000153	-0.020294	0.023041	-0.031586	-0.003357	-0.011139
39.558	-0.015259	-0.010376	-0.066071	0.001831	0.017395	0.2269	0.005188	0.005035	-0.016632	0.067902	0.018768	0.018921	0.16998	0.035858	-0.026703	0.033417	-0.036774	-0.031738	-0.20187	0.018921	-0.21561	0.050812	-0.097351	0.010529	-0.013428	0.015869	0.016022	0.010071	-0.063477	-0.052948	-0.004272	-0.011902
39.559	-0.014801	0.045166	-0.072632	-0.002899	0.008545	0.29312	0.018158	-0.000305	0.007782	0.008698	0.009003	0.031281	0.1004	0.040283	0.037079	0.039825	-0.007935	-0.034332	-0.17838	0.010529	0.092773	-0.095062	0.032196	0.028992	-0.004883	0.004425	0.025635	-0.081024	-0.091095	-0.058289	0.002594	-0.009766
39.56	-0.006866	0.1268	-0.080414	0.00885	-0.067444	0.30075	0.037537	0.003815	0.007782	0.057526	0.014801	0.020294	-0.34943	-0.058746	0.06546	0.027924	0.008545	-0.031738	-0.14694	-0.008087	0.30624	-0.09552	0.027618	-0.013123	0.019989	0.003967	-0.000916	0.003204	-0.036316	-0.063934	0.000305	-0.005035
39.561	-0.012054	0.096283	-0.038147	0.012512	-0.079956	0.22537	0.076752	0.004425	0.053101	0.092621	0.036316	0.02533	-0.65659	-0.068817	-0.002747	0.014954	0.012665	-0.016022	-0.053864	-0.023651	0.089111	0.039368	0.028229	-0.0354	-0.018158	0.001373	-0.01358	-0.013885	-0.022125	-0.065308	-0.00061	-0.002441
39.562	0.005646	0.039978	0.010834	0.005951	-0.043335	-0.13687	0.078888	0.006104	0.11856	-0.057831	0.02121	0.02533	-0.39185	0.019989	-0.052032	0.019836	-0.014343	-0.065155	-0.1709	0.027466	-0.11597	0.1149	0.001221	-0.001068	-0.025177	0.004272	-0.005341	-0.016785	-0.006256	-0.05127	0.000763	-0.011139
39.563	0.011749	-0.035858	0.031281	-0.005341	0.014954	-0.34622	0.06485	0.006256	0.22675	-0.2298	-0.021667	0.014191	0.31235	0.002441	-0.023651	0.025635	-0.018005	-0.10452	-0.1297	0.034485	-0.048828	0.032654	0.071411	-0.014038	0.034332	0.008698	-0.004883	-0.01236	0.003815	-0.036316	0.00061	-0.010223
39.564	-0.004272	-0.039978	0.054169	-0.003204	0.038147	-0.46524	0.040588	-0.007324	0.28686	-0.19226	-0.023651	0.016632	0.35126	0.078125	0.028381	0.028381	0.002747	-0.088654	0.020447	0.060577	-0.010834	-0.002136	0.082855	-0.06134	0.022278	0.003052	0.028381	-0.013123	-0.020294	-0.068054	-0.000916	-0.008698
39.565	-0.007324	0.037231	0.019836	-0.010071	-0.025024	-0.4689	0.039063	-0.001221	0.26688	-0.074158	-0.016785	0.016327	0.024109	0.051575	0.023193	0.029602	0.016174	-0.043335	-0.24323	0.057831	-0.19012	0.11093	-0.007782	-0.034485	0.009155	0.004272	0.002136	-0.010681	-0.000153	-0.001526	-0.002594	-0.010071
39.566	-0.020599	-0.022125	-0.036316	0.012054	0.025787	-0.17532	0.037384	-0.005798	0.1976	0.20477	-0.011444	0.032196	-0.058899	-0.022278	0.00061	0.02243	0.025635	-0.086212	-0.14557	-0.010376	-0.22537	0.16464	-0.031586	0.036469	0.024109	-0.000458	0.003204	-0.008698	-0.045624	-0.004272	0	-0.018463
39.567	-0.021973	-0.10132	-0.037994	-0.003204	-0.001526	0.032501	0.046539	0.008698	0.079803	0.54474	-0.011139	0.34256	0.15396	-0.14603	0.010376	-0.002136	-0.009766	0.007782	0.10071	-0.011902	0.34409	0.12985	-0.039063	0.021973	0.023193	-0.008545	0.024719	-0.000916	-0.095978	-0.042267	-0.002136	-0.020599
39.568	-0.024567	-0.11765	-0.084534	0.003662	-0.015717	0.089264	0.082397	0.009155	-0.083771	0.43076	-0.019684	-0.095215	0.28488	-0.21774	-0.007019	-0.014038	0.001373	-0.091248	0.16342	-0.06073	0.2504	0.044708	-0.021515	0.008698	0.001068	-0.004578	0.026245	-0.002899	-0.007935	-0.041962	0.001526	-0.020447
39.569	-0.026703	-0.12177	-0.17197	-0.009613	-0.005341	0.090637	0.14297	0.007629	-0.3801	-0.02533	-0.015564	-0.050507	0.18829	-0.13718	-0.003052	0.011139	0.013275	-0.036469	0.21378	-0.17685	0.080261	-0.001068	-0.021515	-0.003357	-0.00351	-0.003967	-0.006409	-0.003967	0.040741	-0.085754	-0.001068	-0.023193
39.57	-0.025482	-0.14511	-0.15945	0.006409	0.019989	0.099182	0.13321	0.007172	-0.35294	-0.37262	0.008698	0.042725	-0.15579	0.062866	0.050659	0.040741	-0.011139	0.005188	-0.21164	-0.23911	0.018005	0.015869	-0.054932	-0.000458	0.009613	-0.001678	-0.040588	-0.00061	0.079651	-0.079498	-0.006714	-0.015564
39.571	-0.015564	-0.1152	-0.075531	0.008087	0.089264	0.13001	0.074005	0.002136	-0.20432	-0.25391	0.012207	-0.036163	-0.085907	0.065765	0.039825	0.077362	-0.020447	0.067902	-0.40512	-0.13947	0.074158	0.032043	-0.060425	-0.014343	0.014648	0.011597	-0.026093	-0.006866	0.074463	-0.05188	-0.014801	-0.013428
39.572	-0.009918	-0.062714	-0.029144	0.000916	0.031128	0.11627	0.007172	0.005341	-0.090332	-0.14282	0.000305	-0.072784	0.053253	0.001373	0.005951	0.0383	-0.012665	0.070953	-0.13534	-0.081482	0.059204	0.028381	-0.033875	-0.023956	-0.005951	0.004272	-0.027618	-0.010071	0.096283	0.010681	-0.002899	-0.015106
39.573	-0.023499	-0.034332	0.057068	0.007477	-0.048065	0.094452	-0.018158	0.00824	-0.04303	-0.10025	-0.020905	-0.06485	0.19318	0.031128	-0.015411	0.014801	-0.002747	0.073547	-0.040131	0.11643	0.023041	0.033722	-0.019989	-0.007324	0.020905	-0.017242	-0.024414	0.000458	0.27054	0.0177	-0.002441	-0.011444
39.574	-0.018463	-0.038757	0.031891	0.010223	-0.096283	0.1149	-0.025177	0.007324	-0.03479	-0.067291	-0.002594	-0.047302	0.15915	0.15198	0.017548	0.01358	0.00824	0.053711	-0.21698	0.31311	-0.002136	0.016937	-0.012512	-0.041962	0.03067	-0.010529	-0.024567	-0.000305	0.14816	0.09552	-0.008698	-0.014038
39.575	-0.008698	-0.001678	0.003357	-0.000305	-0.1474	-0.006104	-0.034943	-0.002136	-0.028229	-0.038147	0.009308	-0.051117	-0.22659	0.13092	0.061646	0.005341	0.008545	0.010986	-0.11551	0.31403	-0.004883	0.033417	0.005951	-0.039673	0.033875	-0.006561	-0.030212	-0.000305	-0.39261	0.074158	-0.005951	-0.009918
39.576	0.014343	0.03479	0.036774	0.00946	0.011749	0.000458	-0.018311	-0.007782	-0.035248	0.019226	0.025787	-0.056	-0.67383	-0.06073	-0.030823	0.015564	0.00885	0.077515	-0.23239	0.27618	-0.007782	0.03067	-0.006714	-0.067444	0.036926	-0.004425	0.003967	-0.001068	-0.16281	0.058899	-0.011749	-0.003357
39.577	0.032349	0.027161	-0.03418	-0.010071	0.079041	0.15167	-0.005646	-0.016479	-0.047302	-0.042419	-0.001221	-0.03418	-0.43274	-0.17334	-0.11414	0.025177	0.015106	0.071106	-0.29083	0.12497	-0.034485	0.01236	-0.014801	-0.039215	0.028839	0.002899	-0.02594	-0.002136	-0.08255	0.075226	-0.003662	-0.001221
39.578	0.032959	0.063934	-0.10742	0.002747	0.086212	0.21301	0.032959	-0.016479	-0.014191	0.007019	-0.005341	-0.02594	0.19028	-0.13214	-0.065765	0.009766	0.006866	0.028534	-0.18188	0.036774	-0.023804	-0.011902	-0.017853	-0.019989	0.044556	0.006409	-0.001678	-0.000458	-0.20309	0.009766	-0.003204	0.000763
39.579	0.011444	0.14145	-0.073547	0.015869	0.06134	0.2095	0.08255	-0.005798	-0.015259	0.030823	-0.007477	-0.016174	0.12009	-0.082245	0.034332	-0.003967	0.008087	0.027924	0.12589	0.013428	-0.009766	-0.035553	-0.02594	-0.03006	0.03006	0.003815	0.025787	-0.00351	-0.17899	-0.10742	-0.004272	-0.009155
39.58	0.023956	0.16052	-0.10239	0.014343	0.032654	0.14206	0.01709	-0.00412	0.025177	0.061951	0.005341	-0.014954	0.029602	-0.056458	0.011597	-0.038605	0.024719	0.026245	0.01236	-0.013275	-0.004272	-0.071106	-0.028534	-0.052795	0.022583	0.001678	0.006409	0.007629	0.032654	-0.1033	0.001678	-0.010223
39.581	0.01236	0.19318	-0.000305	-0.00824	-0.003967	-0.016479	-0.024261	-0.005341	0.121	0.11124	0.000153	0.003815	0.031891	-0.003967	0.003815	0.053864	0.014343	0.041962	-0.066986	-0.027466	-0.010529	-0.05661	-0.039063	-0.037231	0.028076	-0.00061	-0.003052	-0.00061	0.075684	-0.13016	-0.001678	-0.010986
39.582	0.020599	0.18448	0.012054	0.007172	-0.064392	-0.054016	-0.014954	-0.005493	0.20065	0.04776	0.005951	0.065155	0.15869	-0.059204	0.015564	0.043335	0.012817	-0.019684	-0.16159	-0.015106	-0.022888	-0.005798	-0.042419	-0.030823	0.032501	-0.003662	0.019684	0.002136	-0.032043	-0.12787	-0.003204	-0.015717
39.583	0.021667	0.25787	0.057831	0.017548	-0.078583	-0.15366	-0.007172	0.000153	0.10529	0.030975	0.003815	-0.033875	0.04364	-0.11261	0.018616	0.025635	0.017395	-0.011902	-0.1236	-0.00824	-0.015564	0.003662	-0.039978	-0.031281	0.028534	0.000763	0.013885	-0.001373	-0.12573	-0.13168	-0.000916	-0.006104
39.584	0.023193	0.30441	0.049896	0.001831	0.054779	-0.43106	0.008698	-0.005188	-0.027466	-0.072937	0.003967	-0.023499	-0.054932	-0.058594	0.006866	0.014343	0.002594	-0.02533	-0.13397	0.002136	0.002747	0.032654	-0.019531	-0.016785	0.028839	0.00885	0.043945	0.001678	-0.62073	-0.11673	-0.007172	-0.010071
39.585	0.024414	0.29785	-0.007172	-0.003662	0.095215	-0.40939	0.025024	-0.007782	-0.031433	-0.19363	0.008698	-0.008698	0.11093	0.043793	0.006561	0.03479	-0.003662	0.026398	-0.079956	-0.004272	0.001984	0.03067	0.009308	-0.007172	0.033569	0.00473	0.040283	0	-0.90958	-0.089264	-0.005493	-0.011597
